<?xml version="1.0" encoding="UTF-8"?><svg xmlns="http://www.w3.org/2000/svg" xmlns:xlink="http://www.w3.org/1999/xlink" width="288.75pt" zoomAndPan="magnify" viewBox="0 0 288.75 149.999998" height="149.999998pt" preserveAspectRatio="xMidYMid meet" version="1.2"><defs><g/><clipPath xml:id="clip1" id="clip1"><path d="M 216 51 L 239 51 L 239 93.917969 L 216 93.917969 Z M 216 51 "/></clipPath><clipPath xml:id="clip2" id="clip2"><path d="M 173.351562 28 L 216 28 L 216 48 L 173.351562 48 Z M 173.351562 28 "/></clipPath><clipPath xml:id="clip3" id="clip3"><path d="M 223 13 L 259.601562 13 L 259.601562 46 L 223 46 Z M 223 13 "/></clipPath><clipPath xml:id="clip4" id="clip4"><path d="M 209 0.949219 L 225 0.949219 L 225 36 L 209 36 Z M 209 0.949219 "/></clipPath></defs><g xml:id="surface1" id="surface1"><g clip-rule="nonzero" clip-path="url(#clip1)"><path style=" stroke:none;fill-rule:evenodd;fill:rgb(0.389099%,60.778809%,18.818665%);fill-opacity:1;" d="M 223 51.425781 C 214.742188 54.796875 216.40625 68.308594 219.273438 75.242188 C 223.167969 84.566406 230.03125 85.085938 233.488281 93.917969 C 237.796875 84.136719 240.339844 74.601562 236.761719 65.878906 C 233.097656 56.5625 228.644531 50.824219 223 51.425781 Z M 223 51.425781 "/></g><g clip-rule="nonzero" clip-path="url(#clip2)"><path style=" stroke:none;fill-rule:evenodd;fill:rgb(0.389099%,60.778809%,18.818665%);fill-opacity:1;" d="M 216 41.390625 C 216.085938 43.964844 206.800781 44.941406 201.335938 46.488281 C 183.625 51.640625 180.304688 40.480469 173.398438 36.699219 C 180.5625 34.082031 184.449219 27.539062 194.898438 28.613281 C 205.027344 29.320312 212.628906 33.148438 216 41.390625 Z M 216 41.390625 "/></g><g clip-rule="nonzero" clip-path="url(#clip3)"><path style=" stroke:none;fill-rule:evenodd;fill:rgb(0.389099%,60.778809%,18.818665%);fill-opacity:1;" d="M 224.871094 43.160156 C 225.738281 48.339844 236.0625 43.574219 246.417969 38.347656 C 258.582031 32.167969 255.214844 21.710938 259.554688 13.445312 C 252.128906 16.511719 244.542969 12.457031 237.640625 18.589844 C 228.507812 26.921875 220.367188 42.3125 224.871094 43.160156 Z M 224.871094 43.160156 "/></g><path style=" stroke:none;fill-rule:evenodd;fill:rgb(0.389099%,60.778809%,18.818665%);fill-opacity:1;" d="M 230.15625 47.886719 C 231.992188 48.460938 232.472656 50.238281 233.789062 51.714844 C 238.464844 55.722656 244.050781 56.046875 250.53125 53.15625 C 252.089844 52.429688 253.691406 51.007812 255.277344 49.816406 C 251.605469 46.6875 248.019531 46.128906 244.621094 46.28125 C 240.171875 46.488281 240.621094 44.765625 234.308594 46.847656 C 232.882812 47.230469 231.539062 48.199219 230.15625 47.886719 Z M 230.15625 47.886719 "/><g clip-rule="nonzero" clip-path="url(#clip4)"><path style=" stroke:none;fill-rule:evenodd;fill:rgb(0.389099%,60.778809%,18.818665%);fill-opacity:1;" d="M 219.953125 35.476562 C 216.421875 33.988281 212.925781 33.785156 209.660156 21.691406 C 208.367188 11.820312 213.515625 7.6875 215.433594 0.917969 C 218.457031 7.042969 224.28125 9.363281 224.617188 19.648438 C 225.625 32.421875 221.296875 32.519531 219.953125 35.476562 Z M 219.953125 35.476562 "/></g><path style=" stroke:none;fill-rule:evenodd;fill:rgb(0.389099%,60.778809%,18.818665%);fill-opacity:1;" d="M 214.804688 48.625 C 215.226562 51.332031 216.503906 53.511719 210.640625 59.816406 C 205.492188 63.949219 201.042969 62.171875 196.300781 63.300781 C 198.75 59.359375 197.84375 54.871094 203.664062 51.246094 C 210.742188 46.058594 212.566406 48.847656 214.804688 48.625 Z M 214.804688 48.625 "/><g style="fill:rgb(42.349243%,64.309692%,6.669617%);fill-opacity:1;"><g transform="translate(58.78464, 148.483506)"><path style="stroke:none;" d="M 2.34375 -5.140625 C 3.007812 -5.140625 3.609375 -4.96875 4.140625 -4.625 L 3.78125 -3.859375 C 3.257812 -4.171875 2.757812 -4.328125 2.28125 -4.328125 C 2.019531 -4.328125 1.816406 -4.28125 1.671875 -4.1875 C 1.523438 -4.101562 1.453125 -3.972656 1.453125 -3.796875 C 1.453125 -3.628906 1.519531 -3.484375 1.65625 -3.359375 C 1.789062 -3.242188 1.957031 -3.15625 2.15625 -3.09375 C 2.363281 -3.039062 2.585938 -2.972656 2.828125 -2.890625 C 3.066406 -2.804688 3.285156 -2.71875 3.484375 -2.625 C 3.691406 -2.53125 3.863281 -2.378906 4 -2.171875 C 4.132812 -1.972656 4.203125 -1.726562 4.203125 -1.4375 C 4.203125 -1 4.019531 -0.644531 3.65625 -0.375 C 3.300781 -0.101562 2.84375 0.03125 2.28125 0.03125 C 1.882812 0.03125 1.503906 -0.0390625 1.140625 -0.1875 C 0.773438 -0.332031 0.457031 -0.53125 0.1875 -0.78125 L 0.5625 -1.53125 C 0.820312 -1.289062 1.101562 -1.101562 1.40625 -0.96875 C 1.71875 -0.84375 2.015625 -0.78125 2.296875 -0.78125 C 2.597656 -0.78125 2.832031 -0.832031 3 -0.9375 C 3.164062 -1.050781 3.25 -1.207031 3.25 -1.40625 C 3.25 -1.570312 3.179688 -1.710938 3.046875 -1.828125 C 2.910156 -1.953125 2.738281 -2.039062 2.53125 -2.09375 C 2.320312 -2.15625 2.097656 -2.226562 1.859375 -2.3125 C 1.628906 -2.394531 1.410156 -2.476562 1.203125 -2.5625 C 0.992188 -2.65625 0.820312 -2.800781 0.6875 -3 C 0.550781 -3.195312 0.484375 -3.4375 0.484375 -3.71875 C 0.484375 -4.15625 0.65625 -4.5 1 -4.75 C 1.34375 -5.007812 1.789062 -5.140625 2.34375 -5.140625 Z M 2.34375 -5.140625 "/></g></g><g style="fill:rgb(42.349243%,64.309692%,6.669617%);fill-opacity:1;"><g transform="translate(65.528544, 148.483506)"><path style="stroke:none;" d="M 5.015625 -5.109375 L 5.015625 -2.109375 C 5.015625 -1.441406 4.816406 -0.914062 4.421875 -0.53125 C 4.023438 -0.15625 3.484375 0.03125 2.796875 0.03125 C 2.109375 0.03125 1.5625 -0.15625 1.15625 -0.53125 C 0.757812 -0.914062 0.5625 -1.441406 0.5625 -2.109375 L 0.5625 -5.109375 L 1.4375 -5.109375 L 1.4375 -2.109375 C 1.4375 -1.679688 1.554688 -1.34375 1.796875 -1.09375 C 2.046875 -0.851562 2.378906 -0.734375 2.796875 -0.734375 C 3.210938 -0.734375 3.539062 -0.851562 3.78125 -1.09375 C 4.03125 -1.34375 4.15625 -1.679688 4.15625 -2.109375 L 4.15625 -5.109375 Z M 5.015625 -5.109375 "/></g></g><g style="fill:rgb(42.349243%,64.309692%,6.669617%);fill-opacity:1;"><g transform="translate(73.30885, 148.483506)"><path style="stroke:none;" d="M 0.671875 -5.109375 L 2.703125 -5.109375 C 3.347656 -5.109375 3.847656 -4.957031 4.203125 -4.65625 C 4.554688 -4.351562 4.734375 -3.921875 4.734375 -3.359375 C 4.734375 -2.785156 4.554688 -2.335938 4.203125 -2.015625 C 3.847656 -1.703125 3.347656 -1.546875 2.703125 -1.546875 L 1.53125 -1.546875 L 1.53125 0 L 0.671875 0 Z M 1.53125 -4.328125 L 1.53125 -2.3125 L 2.671875 -2.3125 C 3.492188 -2.3125 3.90625 -2.65625 3.90625 -3.34375 C 3.90625 -4 3.492188 -4.328125 2.671875 -4.328125 Z M 1.53125 -4.328125 "/></g></g><g style="fill:rgb(42.349243%,64.309692%,6.669617%);fill-opacity:1;"><g transform="translate(80.42498, 148.483506)"><path style="stroke:none;" d="M 0.671875 -5.109375 L 2.703125 -5.109375 C 3.347656 -5.109375 3.847656 -4.957031 4.203125 -4.65625 C 4.554688 -4.351562 4.734375 -3.921875 4.734375 -3.359375 C 4.734375 -2.785156 4.554688 -2.335938 4.203125 -2.015625 C 3.847656 -1.703125 3.347656 -1.546875 2.703125 -1.546875 L 1.53125 -1.546875 L 1.53125 0 L 0.671875 0 Z M 1.53125 -4.328125 L 1.53125 -2.3125 L 2.671875 -2.3125 C 3.492188 -2.3125 3.90625 -2.65625 3.90625 -3.34375 C 3.90625 -4 3.492188 -4.328125 2.671875 -4.328125 Z M 1.53125 -4.328125 "/></g></g><g style="fill:rgb(42.349243%,64.309692%,6.669617%);fill-opacity:1;"><g transform="translate(87.54111, 148.483506)"><path style="stroke:none;" d="M 1.03125 -4.375 C 1.550781 -4.875 2.191406 -5.125 2.953125 -5.125 C 3.710938 -5.125 4.351562 -4.875 4.875 -4.375 C 5.394531 -3.882812 5.65625 -3.273438 5.65625 -2.546875 C 5.65625 -1.816406 5.394531 -1.203125 4.875 -0.703125 C 4.351562 -0.210938 3.710938 0.03125 2.953125 0.03125 C 2.191406 0.03125 1.550781 -0.210938 1.03125 -0.703125 C 0.507812 -1.203125 0.25 -1.816406 0.25 -2.546875 C 0.25 -3.273438 0.507812 -3.882812 1.03125 -4.375 Z M 2.96875 -4.359375 C 2.457031 -4.359375 2.019531 -4.179688 1.65625 -3.828125 C 1.300781 -3.484375 1.125 -3.054688 1.125 -2.546875 C 1.125 -2.046875 1.300781 -1.617188 1.65625 -1.265625 C 2.019531 -0.910156 2.453125 -0.734375 2.953125 -0.734375 C 3.460938 -0.734375 3.894531 -0.910156 4.25 -1.265625 C 4.601562 -1.617188 4.78125 -2.046875 4.78125 -2.546875 C 4.78125 -3.054688 4.601562 -3.484375 4.25 -3.828125 C 3.894531 -4.179688 3.46875 -4.359375 2.96875 -4.359375 Z M 2.96875 -4.359375 "/></g></g><g style="fill:rgb(42.349243%,64.309692%,6.669617%);fill-opacity:1;"><g transform="translate(95.657151, 148.483506)"><path style="stroke:none;" d="M 3.90625 0 L 2.984375 -1.546875 C 2.929688 -1.546875 2.851562 -1.546875 2.75 -1.546875 L 1.53125 -1.546875 L 1.53125 0 L 0.671875 0 L 0.671875 -5.109375 L 2.75 -5.109375 C 3.394531 -5.109375 3.894531 -4.957031 4.25 -4.65625 C 4.613281 -4.351562 4.796875 -3.921875 4.796875 -3.359375 C 4.796875 -2.953125 4.703125 -2.609375 4.515625 -2.328125 C 4.335938 -2.046875 4.082031 -1.835938 3.75 -1.703125 L 4.890625 0 Z M 1.53125 -2.3125 L 2.75 -2.3125 C 3.570312 -2.3125 3.984375 -2.65625 3.984375 -3.34375 C 3.984375 -4 3.570312 -4.328125 2.75 -4.328125 L 1.53125 -4.328125 Z M 1.53125 -2.3125 "/></g></g><g style="fill:rgb(42.349243%,64.309692%,6.669617%);fill-opacity:1;"><g transform="translate(103.138213, 148.483506)"><path style="stroke:none;" d="M 4.15625 -4.328125 L 2.546875 -4.328125 L 2.546875 0 L 1.671875 0 L 1.671875 -4.328125 L 0.0625 -4.328125 L 0.0625 -5.109375 L 4.15625 -5.109375 Z M 4.15625 -4.328125 "/></g></g><g style="fill:rgb(42.349243%,64.309692%,6.669617%);fill-opacity:1;"><g transform="translate(109.568275, 148.483506)"><path style="stroke:none;" d=""/></g></g><g style="fill:rgb(42.349243%,64.309692%,6.669617%);fill-opacity:1;"><g transform="translate(113.655485, 148.483506)"><path style="stroke:none;" d="M 2.765625 -1.703125 L 2.765625 0 L 1.90625 0 L 1.90625 -1.671875 L 0 -5.109375 L 0.875 -5.109375 L 2.328125 -2.625 L 3.765625 -5.109375 L 4.640625 -5.109375 Z M 2.765625 -1.703125 "/></g></g><g style="fill:rgb(42.349243%,64.309692%,6.669617%);fill-opacity:1;"><g transform="translate(120.508872, 148.483506)"><path style="stroke:none;" d="M 1.03125 -4.375 C 1.550781 -4.875 2.191406 -5.125 2.953125 -5.125 C 3.710938 -5.125 4.351562 -4.875 4.875 -4.375 C 5.394531 -3.882812 5.65625 -3.273438 5.65625 -2.546875 C 5.65625 -1.816406 5.394531 -1.203125 4.875 -0.703125 C 4.351562 -0.210938 3.710938 0.03125 2.953125 0.03125 C 2.191406 0.03125 1.550781 -0.210938 1.03125 -0.703125 C 0.507812 -1.203125 0.25 -1.816406 0.25 -2.546875 C 0.25 -3.273438 0.507812 -3.882812 1.03125 -4.375 Z M 2.96875 -4.359375 C 2.457031 -4.359375 2.019531 -4.179688 1.65625 -3.828125 C 1.300781 -3.484375 1.125 -3.054688 1.125 -2.546875 C 1.125 -2.046875 1.300781 -1.617188 1.65625 -1.265625 C 2.019531 -0.910156 2.453125 -0.734375 2.953125 -0.734375 C 3.460938 -0.734375 3.894531 -0.910156 4.25 -1.265625 C 4.601562 -1.617188 4.78125 -2.046875 4.78125 -2.546875 C 4.78125 -3.054688 4.601562 -3.484375 4.25 -3.828125 C 3.894531 -4.179688 3.46875 -4.359375 2.96875 -4.359375 Z M 2.96875 -4.359375 "/></g></g><g style="fill:rgb(42.349243%,64.309692%,6.669617%);fill-opacity:1;"><g transform="translate(128.624913, 148.483506)"><path style="stroke:none;" d="M 5.015625 -5.109375 L 5.015625 -2.109375 C 5.015625 -1.441406 4.816406 -0.914062 4.421875 -0.53125 C 4.023438 -0.15625 3.484375 0.03125 2.796875 0.03125 C 2.109375 0.03125 1.5625 -0.15625 1.15625 -0.53125 C 0.757812 -0.914062 0.5625 -1.441406 0.5625 -2.109375 L 0.5625 -5.109375 L 1.4375 -5.109375 L 1.4375 -2.109375 C 1.4375 -1.679688 1.554688 -1.34375 1.796875 -1.09375 C 2.046875 -0.851562 2.378906 -0.734375 2.796875 -0.734375 C 3.210938 -0.734375 3.539062 -0.851562 3.78125 -1.09375 C 4.03125 -1.34375 4.15625 -1.679688 4.15625 -2.109375 L 4.15625 -5.109375 Z M 5.015625 -5.109375 "/></g></g><g style="fill:rgb(42.349243%,64.309692%,6.669617%);fill-opacity:1;"><g transform="translate(136.405219, 148.483506)"><path style="stroke:none;" d="M 3.90625 0 L 2.984375 -1.546875 C 2.929688 -1.546875 2.851562 -1.546875 2.75 -1.546875 L 1.53125 -1.546875 L 1.53125 0 L 0.671875 0 L 0.671875 -5.109375 L 2.75 -5.109375 C 3.394531 -5.109375 3.894531 -4.957031 4.25 -4.65625 C 4.613281 -4.351562 4.796875 -3.921875 4.796875 -3.359375 C 4.796875 -2.953125 4.703125 -2.609375 4.515625 -2.328125 C 4.335938 -2.046875 4.082031 -1.835938 3.75 -1.703125 L 4.890625 0 Z M 1.53125 -2.3125 L 2.75 -2.3125 C 3.570312 -2.3125 3.984375 -2.65625 3.984375 -3.34375 C 3.984375 -4 3.570312 -4.328125 2.75 -4.328125 L 1.53125 -4.328125 Z M 1.53125 -2.3125 "/></g></g><g style="fill:rgb(42.349243%,64.309692%,6.669617%);fill-opacity:1;"><g transform="translate(143.886281, 148.483506)"><path style="stroke:none;" d=""/></g></g><g style="fill:rgb(42.349243%,64.309692%,6.669617%);fill-opacity:1;"><g transform="translate(147.973486, 148.483506)"><path style="stroke:none;" d="M 1.53125 -0.78125 L 3.75 -0.78125 L 3.75 0 L 0.671875 0 L 0.671875 -5.109375 L 1.53125 -5.109375 Z M 1.53125 -0.78125 "/></g></g><g style="fill:rgb(42.349243%,64.309692%,6.669617%);fill-opacity:1;"><g transform="translate(154.075112, 148.483506)"><path style="stroke:none;" d="M 1.03125 -4.375 C 1.550781 -4.875 2.191406 -5.125 2.953125 -5.125 C 3.710938 -5.125 4.351562 -4.875 4.875 -4.375 C 5.394531 -3.882812 5.65625 -3.273438 5.65625 -2.546875 C 5.65625 -1.816406 5.394531 -1.203125 4.875 -0.703125 C 4.351562 -0.210938 3.710938 0.03125 2.953125 0.03125 C 2.191406 0.03125 1.550781 -0.210938 1.03125 -0.703125 C 0.507812 -1.203125 0.25 -1.816406 0.25 -2.546875 C 0.25 -3.273438 0.507812 -3.882812 1.03125 -4.375 Z M 2.96875 -4.359375 C 2.457031 -4.359375 2.019531 -4.179688 1.65625 -3.828125 C 1.300781 -3.484375 1.125 -3.054688 1.125 -2.546875 C 1.125 -2.046875 1.300781 -1.617188 1.65625 -1.265625 C 2.019531 -0.910156 2.453125 -0.734375 2.953125 -0.734375 C 3.460938 -0.734375 3.894531 -0.910156 4.25 -1.265625 C 4.601562 -1.617188 4.78125 -2.046875 4.78125 -2.546875 C 4.78125 -3.054688 4.601562 -3.484375 4.25 -3.828125 C 3.894531 -4.179688 3.46875 -4.359375 2.96875 -4.359375 Z M 2.96875 -4.359375 "/></g></g><g style="fill:rgb(42.349243%,64.309692%,6.669617%);fill-opacity:1;"><g transform="translate(162.191148, 148.483506)"><path style="stroke:none;" d="M 2.9375 -5.125 C 3.289062 -5.125 3.640625 -5.054688 3.984375 -4.921875 C 4.328125 -4.785156 4.625 -4.59375 4.875 -4.34375 L 4.375 -3.71875 C 4.1875 -3.914062 3.960938 -4.070312 3.703125 -4.1875 C 3.453125 -4.300781 3.203125 -4.359375 2.953125 -4.359375 C 2.441406 -4.359375 2.007812 -4.179688 1.65625 -3.828125 C 1.300781 -3.484375 1.125 -3.0625 1.125 -2.5625 C 1.125 -2.0625 1.300781 -1.632812 1.65625 -1.28125 C 2.007812 -0.9375 2.441406 -0.765625 2.953125 -0.765625 C 3.484375 -0.765625 3.957031 -0.96875 4.375 -1.375 L 4.875 -0.796875 C 4.613281 -0.546875 4.304688 -0.34375 3.953125 -0.1875 C 3.609375 -0.0390625 3.257812 0.03125 2.90625 0.03125 C 2.15625 0.03125 1.523438 -0.210938 1.015625 -0.703125 C 0.503906 -1.203125 0.25 -1.820312 0.25 -2.5625 C 0.25 -3.28125 0.503906 -3.882812 1.015625 -4.375 C 1.535156 -4.875 2.175781 -5.125 2.9375 -5.125 Z M 2.9375 -5.125 "/></g></g><g style="fill:rgb(42.349243%,64.309692%,6.669617%);fill-opacity:1;"><g transform="translate(169.482454, 148.483506)"><path style="stroke:none;" d="M 3.96875 -1.15625 L 1.390625 -1.15625 L 0.90625 0 L 0 0 L 2.265625 -5.109375 L 3.140625 -5.109375 L 5.375 0 L 4.453125 0 Z M 3.640625 -1.921875 L 2.671875 -4.1875 L 1.71875 -1.921875 Z M 3.640625 -1.921875 "/></g></g><g style="fill:rgb(42.349243%,64.309692%,6.669617%);fill-opacity:1;"><g transform="translate(177.073004, 148.483506)"><path style="stroke:none;" d="M 1.53125 -0.78125 L 3.75 -0.78125 L 3.75 0 L 0.671875 0 L 0.671875 -5.109375 L 1.53125 -5.109375 Z M 1.53125 -0.78125 "/></g></g><g style="fill:rgb(42.349243%,64.309692%,6.669617%);fill-opacity:1;"><g transform="translate(183.17463, 148.483506)"><path style="stroke:none;" d=""/></g></g><g style="fill:rgb(42.349243%,64.309692%,6.669617%);fill-opacity:1;"><g transform="translate(187.261835, 148.483506)"><path style="stroke:none;" d="M 4.09375 -4.328125 L 1.53125 -4.328125 L 1.53125 -2.859375 L 3.859375 -2.859375 L 3.859375 -2.09375 L 1.53125 -2.09375 L 1.53125 0 L 0.671875 0 L 0.671875 -5.109375 L 4.09375 -5.109375 Z M 4.09375 -4.328125 "/></g></g><g style="fill:rgb(42.349243%,64.309692%,6.669617%);fill-opacity:1;"><g transform="translate(193.662714, 148.483506)"><path style="stroke:none;" d="M 3.96875 -1.15625 L 1.390625 -1.15625 L 0.90625 0 L 0 0 L 2.265625 -5.109375 L 3.140625 -5.109375 L 5.375 0 L 4.453125 0 Z M 3.640625 -1.921875 L 2.671875 -4.1875 L 1.71875 -1.921875 Z M 3.640625 -1.921875 "/></g></g><g style="fill:rgb(42.349243%,64.309692%,6.669617%);fill-opacity:1;"><g transform="translate(201.253264, 148.483506)"><path style="stroke:none;" d="M 3.90625 0 L 2.984375 -1.546875 C 2.929688 -1.546875 2.851562 -1.546875 2.75 -1.546875 L 1.53125 -1.546875 L 1.53125 0 L 0.671875 0 L 0.671875 -5.109375 L 2.75 -5.109375 C 3.394531 -5.109375 3.894531 -4.957031 4.25 -4.65625 C 4.613281 -4.351562 4.796875 -3.921875 4.796875 -3.359375 C 4.796875 -2.953125 4.703125 -2.609375 4.515625 -2.328125 C 4.335938 -2.046875 4.082031 -1.835938 3.75 -1.703125 L 4.890625 0 Z M 1.53125 -2.3125 L 2.75 -2.3125 C 3.570312 -2.3125 3.984375 -2.65625 3.984375 -3.34375 C 3.984375 -4 3.570312 -4.328125 2.75 -4.328125 L 1.53125 -4.328125 Z M 1.53125 -2.3125 "/></g></g><g style="fill:rgb(42.349243%,64.309692%,6.669617%);fill-opacity:1;"><g transform="translate(208.734321, 148.483506)"><path style="stroke:none;" d="M 6.078125 0 L 5.28125 0 L 5.265625 -3.8125 L 3.65625 -0.53125 L 3.09375 -0.53125 L 1.484375 -3.8125 L 1.484375 0 L 0.671875 0 L 0.671875 -5.109375 L 1.6875 -5.109375 L 3.375 -1.71875 L 5.0625 -5.109375 L 6.078125 -5.109375 Z M 6.078125 0 "/></g></g><g style="fill:rgb(42.349243%,64.309692%,6.669617%);fill-opacity:1;"><g transform="translate(217.689714, 148.483506)"><path style="stroke:none;" d="M 4.3125 -4.328125 L 1.53125 -4.328125 L 1.53125 -2.953125 L 4.03125 -2.953125 L 4.03125 -2.1875 L 1.53125 -2.1875 L 1.53125 -0.78125 L 4.40625 -0.78125 L 4.40625 0 L 0.671875 0 L 0.671875 -5.109375 L 4.3125 -5.109375 Z M 4.3125 -4.328125 "/></g></g><g style="fill:rgb(42.349243%,64.309692%,6.669617%);fill-opacity:1;"><g transform="translate(224.681776, 148.483506)"><path style="stroke:none;" d="M 3.90625 0 L 2.984375 -1.546875 C 2.929688 -1.546875 2.851562 -1.546875 2.75 -1.546875 L 1.53125 -1.546875 L 1.53125 0 L 0.671875 0 L 0.671875 -5.109375 L 2.75 -5.109375 C 3.394531 -5.109375 3.894531 -4.957031 4.25 -4.65625 C 4.613281 -4.351562 4.796875 -3.921875 4.796875 -3.359375 C 4.796875 -2.953125 4.703125 -2.609375 4.515625 -2.328125 C 4.335938 -2.046875 4.082031 -1.835938 3.75 -1.703125 L 4.890625 0 Z M 1.53125 -2.3125 L 2.75 -2.3125 C 3.570312 -2.3125 3.984375 -2.65625 3.984375 -3.34375 C 3.984375 -4 3.570312 -4.328125 2.75 -4.328125 L 1.53125 -4.328125 Z M 1.53125 -2.3125 "/></g></g><g style="fill:rgb(12.548828%,43.919373%,0%);fill-opacity:1;"><g transform="translate(98.483145, 97.202215)"><path style="stroke:none;" d="M 1.703125 -1.515625 L 1.703125 -21.546875 C 1.703125 -22.023438 1.941406 -22.390625 2.421875 -22.640625 C 2.910156 -22.898438 3.488281 -23.03125 4.15625 -23.03125 C 4.832031 -23.03125 5.410156 -22.898438 5.890625 -22.640625 C 6.367188 -22.390625 6.609375 -22.023438 6.609375 -21.546875 L 6.609375 -13.984375 L 12.5 -22.328125 C 12.820312 -22.796875 13.253906 -23.03125 13.796875 -23.03125 C 14.453125 -23.03125 15.097656 -22.757812 15.734375 -22.21875 C 16.367188 -21.6875 16.6875 -21.113281 16.6875 -20.5 C 16.6875 -20.164062 16.582031 -19.851562 16.375 -19.5625 L 11.21875 -13.078125 L 17.734375 -3.09375 C 17.898438 -2.8125 17.984375 -2.535156 17.984375 -2.265625 C 17.984375 -1.660156 17.664062 -1.097656 17.03125 -0.578125 C 16.40625 -0.0664062 15.738281 0.1875 15.03125 0.1875 C 14.269531 0.1875 13.703125 -0.113281 13.328125 -0.71875 L 7.9375 -8.921875 L 6.609375 -7.21875 L 6.609375 -1.515625 C 6.609375 -1.023438 6.367188 -0.648438 5.890625 -0.390625 C 5.410156 -0.128906 4.832031 0 4.15625 0 C 3.488281 0 2.910156 -0.128906 2.421875 -0.390625 C 1.941406 -0.648438 1.703125 -1.023438 1.703125 -1.515625 Z M 1.703125 -1.515625 "/></g></g><g style="fill:rgb(12.548828%,43.919373%,0%);fill-opacity:1;"><g transform="translate(116.313899, 97.202215)"><path style="stroke:none;" d="M 1.453125 -7.25 L 1.453125 -15.59375 C 1.453125 -18.15625 2.15625 -20.035156 3.5625 -21.234375 C 4.96875 -22.429688 6.835938 -23.03125 9.171875 -23.03125 C 11.515625 -23.03125 13.390625 -22.429688 14.796875 -21.234375 C 16.210938 -20.035156 16.921875 -18.15625 16.921875 -15.59375 L 16.921875 -7.25 C 16.921875 -4.6875 16.210938 -2.804688 14.796875 -1.609375 C 13.390625 -0.410156 11.515625 0.1875 9.171875 0.1875 C 6.835938 0.1875 4.96875 -0.410156 3.5625 -1.609375 C 2.15625 -2.804688 1.453125 -4.6875 1.453125 -7.25 Z M 6.359375 -7.25 C 6.359375 -5.144531 7.296875 -4.09375 9.171875 -4.09375 C 11.054688 -4.09375 12 -5.144531 12 -7.25 L 12 -15.59375 C 12 -17.695312 11.054688 -18.75 9.171875 -18.75 C 7.296875 -18.75 6.359375 -17.695312 6.359375 -15.59375 Z M 6.359375 -7.25 "/></g></g><g style="fill:rgb(12.548828%,43.919373%,0%);fill-opacity:1;"><g transform="translate(134.6802, 97.202215)"><path style="stroke:none;" d="M 1.703125 -1.515625 L 1.703125 -21.515625 C 1.703125 -21.992188 1.941406 -22.363281 2.421875 -22.625 C 2.910156 -22.894531 3.488281 -23.03125 4.15625 -23.03125 C 5.101562 -23.03125 5.800781 -22.890625 6.25 -22.609375 C 6.707031 -22.335938 7.21875 -21.65625 7.78125 -20.5625 L 12.890625 -10.84375 L 12.890625 -21.546875 C 12.890625 -22.023438 13.128906 -22.390625 13.609375 -22.640625 C 14.085938 -22.898438 14.660156 -23.03125 15.328125 -23.03125 C 16.003906 -23.03125 16.582031 -22.898438 17.0625 -22.640625 C 17.550781 -22.390625 17.796875 -22.023438 17.796875 -21.546875 L 17.796875 -1.515625 C 17.796875 -1.023438 17.550781 -0.648438 17.0625 -0.390625 C 16.582031 -0.128906 16.007812 0 15.34375 0 C 14 0 13.082031 -0.441406 12.59375 -1.328125 L 6.609375 -12.21875 L 6.609375 -1.515625 C 6.609375 -1.023438 6.367188 -0.648438 5.890625 -0.390625 C 5.410156 -0.128906 4.832031 0 4.15625 0 C 3.488281 0 2.910156 -0.128906 2.421875 -0.390625 C 1.941406 -0.648438 1.703125 -1.023438 1.703125 -1.515625 Z M 1.703125 -1.515625 "/></g></g><g style="fill:rgb(12.548828%,43.919373%,0%);fill-opacity:1;"><g transform="translate(154.180616, 97.202215)"><path style="stroke:none;" d="M 1.453125 -7.25 L 1.453125 -15.59375 C 1.453125 -18.15625 2.148438 -20.035156 3.546875 -21.234375 C 4.941406 -22.429688 6.765625 -23.03125 9.015625 -23.03125 C 11.316406 -23.03125 13.207031 -22.472656 14.6875 -21.359375 C 16.175781 -20.242188 16.921875 -18.710938 16.921875 -16.765625 C 16.921875 -15.859375 16.726562 -15.238281 16.34375 -14.90625 C 15.96875 -14.582031 15.335938 -14.421875 14.453125 -14.421875 C 12.878906 -14.421875 12.0625 -14.914062 12 -15.90625 C 11.9375 -17.800781 11.003906 -18.75 9.203125 -18.75 C 7.304688 -18.75 6.359375 -17.695312 6.359375 -15.59375 L 6.359375 -7.25 C 6.359375 -5.144531 7.316406 -4.09375 9.234375 -4.09375 C 9.816406 -4.09375 10.300781 -4.1875 10.6875 -4.375 C 11.082031 -4.5625 11.363281 -4.847656 11.53125 -5.234375 C 11.695312 -5.628906 11.804688 -5.953125 11.859375 -6.203125 C 11.910156 -6.453125 11.957031 -6.800781 12 -7.25 C 12.082031 -8.226562 12.890625 -8.71875 14.421875 -8.71875 C 15.328125 -8.71875 15.96875 -8.554688 16.34375 -8.234375 C 16.726562 -7.910156 16.921875 -7.296875 16.921875 -6.390625 C 16.921875 -4.359375 16.175781 -2.753906 14.6875 -1.578125 C 13.207031 -0.398438 11.316406 0.1875 9.015625 0.1875 C 6.765625 0.1875 4.941406 -0.410156 3.546875 -1.609375 C 2.148438 -2.804688 1.453125 -4.6875 1.453125 -7.25 Z M 1.453125 -7.25 "/></g></g><g style="fill:rgb(12.548828%,43.919373%,0%);fill-opacity:1;"><g transform="translate(171.885354, 97.202215)"><path style="stroke:none;" d="M 1.453125 -7.25 L 1.453125 -15.59375 C 1.453125 -18.15625 2.15625 -20.035156 3.5625 -21.234375 C 4.96875 -22.429688 6.835938 -23.03125 9.171875 -23.03125 C 11.515625 -23.03125 13.390625 -22.429688 14.796875 -21.234375 C 16.210938 -20.035156 16.921875 -18.15625 16.921875 -15.59375 L 16.921875 -7.25 C 16.921875 -4.6875 16.210938 -2.804688 14.796875 -1.609375 C 13.390625 -0.410156 11.515625 0.1875 9.171875 0.1875 C 6.835938 0.1875 4.96875 -0.410156 3.5625 -1.609375 C 2.15625 -2.804688 1.453125 -4.6875 1.453125 -7.25 Z M 6.359375 -7.25 C 6.359375 -5.144531 7.296875 -4.09375 9.171875 -4.09375 C 11.054688 -4.09375 12 -5.144531 12 -7.25 L 12 -15.59375 C 12 -17.695312 11.054688 -18.75 9.171875 -18.75 C 7.296875 -18.75 6.359375 -17.695312 6.359375 -15.59375 Z M 6.359375 -7.25 "/></g></g><g style="fill:rgb(12.548828%,43.919373%,0%);fill-opacity:1;"><g transform="translate(112.647244, 135.005959)"><path style="stroke:none;" d="M 0.25 -20.859375 C 0.25 -21.441406 0.375 -21.945312 0.625 -22.375 C 0.882812 -22.8125 1.253906 -23.03125 1.734375 -23.03125 L 15.34375 -23.03125 C 15.820312 -23.03125 16.1875 -22.8125 16.4375 -22.375 C 16.695312 -21.945312 16.828125 -21.441406 16.828125 -20.859375 C 16.828125 -20.222656 16.691406 -19.6875 16.421875 -19.25 C 16.160156 -18.820312 15.800781 -18.609375 15.34375 -18.609375 L 11 -18.609375 L 11 -1.515625 C 11 -1.023438 10.753906 -0.648438 10.265625 -0.390625 C 9.785156 -0.128906 9.207031 0 8.53125 0 C 7.863281 0 7.285156 -0.128906 6.796875 -0.390625 C 6.316406 -0.648438 6.078125 -1.023438 6.078125 -1.515625 L 6.078125 -18.609375 L 1.734375 -18.609375 C 1.273438 -18.609375 0.910156 -18.820312 0.640625 -19.25 C 0.378906 -19.6875 0.25 -20.222656 0.25 -20.859375 Z M 0.25 -20.859375 "/></g></g><g style="fill:rgb(12.548828%,43.919373%,0%);fill-opacity:1;"><g transform="translate(129.721917, 135.005959)"><path style="stroke:none;" d="M 0.125 -2.015625 C 0.125 -2.078125 0.144531 -2.191406 0.1875 -2.359375 L 6.046875 -21.578125 C 6.210938 -22.097656 6.59375 -22.5 7.1875 -22.78125 C 7.789062 -23.070312 8.476562 -23.21875 9.25 -23.21875 C 10.03125 -23.21875 10.71875 -23.070312 11.3125 -22.78125 C 11.914062 -22.5 12.300781 -22.097656 12.46875 -21.578125 L 18.359375 -2.359375 C 18.398438 -2.191406 18.421875 -2.078125 18.421875 -2.015625 C 18.421875 -1.472656 18.078125 -1 17.390625 -0.59375 C 16.710938 -0.195312 16.007812 0 15.28125 0 C 14.375 0 13.835938 -0.300781 13.671875 -0.90625 L 12.59375 -4.84375 L 5.953125 -4.84375 L 4.875 -0.90625 C 4.707031 -0.300781 4.175781 0 3.28125 0 C 2.539062 0 1.828125 -0.195312 1.140625 -0.59375 C 0.460938 -1 0.125 -1.472656 0.125 -2.015625 Z M 6.96875 -8.625 L 11.5625 -8.625 L 9.265625 -17.078125 Z M 6.96875 -8.625 "/></g></g><g style="fill:rgb(12.548828%,43.919373%,0%);fill-opacity:1;"><g transform="translate(148.277241, 135.005959)"><path style="stroke:none;" d="M 1.703125 -1.515625 L 1.703125 -21.515625 C 1.703125 -21.992188 1.941406 -22.363281 2.421875 -22.625 C 2.910156 -22.894531 3.488281 -23.03125 4.15625 -23.03125 C 5.101562 -23.03125 5.800781 -22.890625 6.25 -22.609375 C 6.707031 -22.335938 7.21875 -21.65625 7.78125 -20.5625 L 12.890625 -10.84375 L 12.890625 -21.546875 C 12.890625 -22.023438 13.128906 -22.390625 13.609375 -22.640625 C 14.085938 -22.898438 14.660156 -23.03125 15.328125 -23.03125 C 16.003906 -23.03125 16.582031 -22.898438 17.0625 -22.640625 C 17.550781 -22.390625 17.796875 -22.023438 17.796875 -21.546875 L 17.796875 -1.515625 C 17.796875 -1.023438 17.550781 -0.648438 17.0625 -0.390625 C 16.582031 -0.128906 16.007812 0 15.34375 0 C 14 0 13.082031 -0.441406 12.59375 -1.328125 L 6.609375 -12.21875 L 6.609375 -1.515625 C 6.609375 -1.023438 6.367188 -0.648438 5.890625 -0.390625 C 5.410156 -0.128906 4.832031 0 4.15625 0 C 3.488281 0 2.910156 -0.128906 2.421875 -0.390625 C 1.941406 -0.648438 1.703125 -1.023438 1.703125 -1.515625 Z M 1.703125 -1.515625 "/></g></g><g style="fill:rgb(12.548828%,43.919373%,0%);fill-opacity:1;"><g transform="translate(167.777656, 135.005959)"><path style="stroke:none;" d="M 1.703125 -1.515625 L 1.703125 -21.546875 C 1.703125 -22.023438 1.941406 -22.390625 2.421875 -22.640625 C 2.910156 -22.898438 3.488281 -23.03125 4.15625 -23.03125 C 4.832031 -23.03125 5.410156 -22.898438 5.890625 -22.640625 C 6.367188 -22.390625 6.609375 -22.023438 6.609375 -21.546875 L 6.609375 -1.515625 C 6.609375 -1.023438 6.367188 -0.648438 5.890625 -0.390625 C 5.410156 -0.128906 4.832031 0 4.15625 0 C 3.488281 0 2.910156 -0.128906 2.421875 -0.390625 C 1.941406 -0.648438 1.703125 -1.023438 1.703125 -1.515625 Z M 1.703125 -1.515625 "/></g></g></g></svg>