<?xml version="1.0" encoding="UTF-8"?><svg xmlns="http://www.w3.org/2000/svg" xmlns:xlink="http://www.w3.org/1999/xlink" width="288.75pt" zoomAndPan="magnify" viewBox="0 0 288.75 149.999998" height="149.999998pt" preserveAspectRatio="xMidYMid meet" version="1.2"><defs><g/><clipPath xml:id="clip1" id="clip1"><path d="M 217 55 L 239 55 L 239 97.859375 L 217 97.859375 Z M 217 55 "/></clipPath><clipPath xml:id="clip2" id="clip2"><path d="M 173.847656 32 L 217 32 L 217 52 L 173.847656 52 Z M 173.847656 32 "/></clipPath><clipPath xml:id="clip3" id="clip3"><path d="M 224 17 L 259.972656 17 L 259.972656 50 L 224 50 Z M 224 17 "/></clipPath><clipPath xml:id="clip4" id="clip4"><path d="M 209 4.660156 L 226 4.660156 L 226 40 L 209 40 Z M 209 4.660156 "/></clipPath></defs><g xml:id="surface1" id="surface1"><g clip-rule="nonzero" clip-path="url(#clip1)"><path style=" stroke:none;fill-rule:evenodd;fill:rgb(0.389099%,60.778809%,18.818665%);fill-opacity:1;" d="M 223.425781 55.261719 C 215.175781 58.644531 216.839844 72.1875 219.703125 79.136719 C 223.589844 88.488281 230.445312 89.007812 233.898438 97.859375 C 238.199219 88.054688 240.738281 78.496094 237.164062 69.75 C 233.507812 60.414062 229.058594 54.660156 223.425781 55.261719 Z M 223.425781 55.261719 "/></g><g clip-rule="nonzero" clip-path="url(#clip2)"><path style=" stroke:none;fill-rule:evenodd;fill:rgb(0.389099%,60.778809%,18.818665%);fill-opacity:1;" d="M 216.433594 45.203125 C 216.519531 47.78125 207.246094 48.761719 201.789062 50.3125 C 184.105469 55.476562 180.789062 44.289062 173.894531 40.496094 C 181.050781 37.875 184.929688 31.316406 195.363281 32.394531 C 205.476562 33.101562 213.070312 36.941406 216.433594 45.203125 Z M 216.433594 45.203125 "/></g><g clip-rule="nonzero" clip-path="url(#clip3)"><path style=" stroke:none;fill-rule:evenodd;fill:rgb(0.389099%,60.778809%,18.818665%);fill-opacity:1;" d="M 225.292969 46.976562 C 226.160156 52.171875 236.46875 47.390625 246.808594 42.148438 C 258.953125 35.957031 255.59375 25.472656 259.925781 17.1875 C 252.511719 20.261719 244.933594 16.195312 238.042969 22.34375 C 228.925781 30.695312 220.792969 46.125 225.292969 46.976562 Z M 225.292969 46.976562 "/></g><path style=" stroke:none;fill-rule:evenodd;fill:rgb(0.389099%,60.778809%,18.818665%);fill-opacity:1;" d="M 230.570312 51.714844 C 232.402344 52.289062 232.882812 54.070312 234.199219 55.554688 C 238.863281 59.570312 244.445312 59.894531 250.914062 57 C 252.472656 56.269531 254.070312 54.84375 255.65625 53.648438 C 251.988281 50.511719 248.40625 49.949219 245.015625 50.105469 C 240.570312 50.3125 241.019531 48.585938 234.71875 50.671875 C 233.292969 51.058594 231.949219 52.03125 230.570312 51.714844 Z M 230.570312 51.714844 "/><g clip-rule="nonzero" clip-path="url(#clip4)"><path style=" stroke:none;fill-rule:evenodd;fill:rgb(0.389099%,60.778809%,18.818665%);fill-opacity:1;" d="M 220.382812 39.273438 C 216.855469 37.777344 213.367188 37.574219 210.101562 25.453125 C 208.8125 15.558594 213.953125 11.410156 215.867188 4.625 C 218.890625 10.765625 224.703125 13.09375 225.039062 23.402344 C 226.046875 36.210938 221.722656 36.308594 220.382812 39.273438 Z M 220.382812 39.273438 "/></g><path style=" stroke:none;fill-rule:evenodd;fill:rgb(0.389099%,60.778809%,18.818665%);fill-opacity:1;" d="M 215.238281 52.457031 C 215.660156 55.167969 216.9375 57.351562 211.082031 63.675781 C 205.941406 67.816406 201.496094 66.039062 196.761719 67.167969 C 199.210938 63.214844 198.304688 58.71875 204.117188 55.082031 C 211.183594 49.878906 213.003906 52.675781 215.238281 52.457031 Z M 215.238281 52.457031 "/><g style="fill:rgb(12.548828%,43.919373%,0%);fill-opacity:1;"><g transform="translate(98.334343, 101.221509)"><path style="stroke:none;" d="M 1.703125 -1.515625 L 1.703125 -21.625 C 1.703125 -22.101562 1.941406 -22.46875 2.421875 -22.71875 C 2.910156 -22.976562 3.492188 -23.109375 4.171875 -23.109375 C 4.847656 -23.109375 5.425781 -22.976562 5.90625 -22.71875 C 6.394531 -22.46875 6.640625 -22.101562 6.640625 -21.625 L 6.640625 -14.03125 L 12.546875 -22.40625 C 12.859375 -22.875 13.289062 -23.109375 13.84375 -23.109375 C 14.5 -23.109375 15.144531 -22.835938 15.78125 -22.296875 C 16.425781 -21.765625 16.75 -21.191406 16.75 -20.578125 C 16.75 -20.242188 16.644531 -19.925781 16.4375 -19.625 L 11.25 -13.125 L 17.796875 -3.09375 C 17.960938 -2.820312 18.046875 -2.550781 18.046875 -2.28125 C 18.046875 -1.664062 17.726562 -1.097656 17.09375 -0.578125 C 16.46875 -0.0664062 15.796875 0.1875 15.078125 0.1875 C 14.316406 0.1875 13.75 -0.117188 13.375 -0.734375 L 7.96875 -8.953125 L 6.640625 -7.234375 L 6.640625 -1.515625 C 6.640625 -1.035156 6.394531 -0.660156 5.90625 -0.390625 C 5.425781 -0.128906 4.847656 0 4.171875 0 C 3.492188 0 2.910156 -0.128906 2.421875 -0.390625 C 1.941406 -0.660156 1.703125 -1.035156 1.703125 -1.515625 Z M 1.703125 -1.515625 "/></g></g><g style="fill:rgb(12.548828%,43.919373%,0%);fill-opacity:1;"><g transform="translate(116.222909, 101.221509)"><path style="stroke:none;" d="M 1.453125 -7.265625 L 1.453125 -15.640625 C 1.453125 -18.210938 2.15625 -20.097656 3.5625 -21.296875 C 4.976562 -22.503906 6.859375 -23.109375 9.203125 -23.109375 C 11.554688 -23.109375 13.4375 -22.503906 14.84375 -21.296875 C 16.257812 -20.097656 16.96875 -18.210938 16.96875 -15.640625 L 16.96875 -7.265625 C 16.96875 -4.691406 16.257812 -2.804688 14.84375 -1.609375 C 13.4375 -0.410156 11.554688 0.1875 9.203125 0.1875 C 6.859375 0.1875 4.976562 -0.410156 3.5625 -1.609375 C 2.15625 -2.804688 1.453125 -4.691406 1.453125 -7.265625 Z M 6.390625 -7.265625 C 6.390625 -5.160156 7.328125 -4.109375 9.203125 -4.109375 C 11.097656 -4.109375 12.046875 -5.160156 12.046875 -7.265625 L 12.046875 -15.640625 C 12.046875 -17.753906 11.097656 -18.8125 9.203125 -18.8125 C 7.328125 -18.8125 6.390625 -17.753906 6.390625 -15.640625 Z M 6.390625 -7.265625 "/></g></g><g style="fill:rgb(12.548828%,43.919373%,0%);fill-opacity:1;"><g transform="translate(134.648759, 101.221509)"><path style="stroke:none;" d="M 1.703125 -1.515625 L 1.703125 -21.59375 C 1.703125 -22.070312 1.941406 -22.441406 2.421875 -22.703125 C 2.910156 -22.972656 3.492188 -23.109375 4.171875 -23.109375 C 5.117188 -23.109375 5.816406 -22.96875 6.265625 -22.6875 C 6.722656 -22.414062 7.238281 -21.734375 7.8125 -20.640625 L 12.921875 -10.875 L 12.921875 -21.625 C 12.921875 -22.101562 13.160156 -22.46875 13.640625 -22.71875 C 14.128906 -22.976562 14.710938 -23.109375 15.390625 -23.109375 C 16.066406 -23.109375 16.644531 -22.976562 17.125 -22.71875 C 17.613281 -22.46875 17.859375 -22.101562 17.859375 -21.625 L 17.859375 -1.515625 C 17.859375 -1.035156 17.613281 -0.660156 17.125 -0.390625 C 16.644531 -0.128906 16.066406 0 15.390625 0 C 14.046875 0 13.128906 -0.441406 12.640625 -1.328125 L 6.640625 -12.265625 L 6.640625 -1.515625 C 6.640625 -1.035156 6.394531 -0.660156 5.90625 -0.390625 C 5.425781 -0.128906 4.847656 0 4.171875 0 C 3.492188 0 2.910156 -0.128906 2.421875 -0.390625 C 1.941406 -0.660156 1.703125 -1.035156 1.703125 -1.515625 Z M 1.703125 -1.515625 "/></g></g><g style="fill:rgb(12.548828%,43.919373%,0%);fill-opacity:1;"><g transform="translate(154.2124, 101.221509)"><path style="stroke:none;" d="M 1.453125 -7.265625 L 1.453125 -15.640625 C 1.453125 -18.210938 2.148438 -20.097656 3.546875 -21.296875 C 4.953125 -22.503906 6.785156 -23.109375 9.046875 -23.109375 C 11.359375 -23.109375 13.253906 -22.546875 14.734375 -21.421875 C 16.222656 -20.304688 16.96875 -18.769531 16.96875 -16.8125 C 16.96875 -15.90625 16.78125 -15.289062 16.40625 -14.96875 C 16.03125 -14.644531 15.398438 -14.484375 14.515625 -14.484375 C 12.929688 -14.484375 12.109375 -14.976562 12.046875 -15.96875 C 11.984375 -17.863281 11.046875 -18.8125 9.234375 -18.8125 C 7.335938 -18.8125 6.390625 -17.753906 6.390625 -15.640625 L 6.390625 -7.265625 C 6.390625 -5.160156 7.347656 -4.109375 9.265625 -4.109375 C 9.847656 -4.109375 10.332031 -4.203125 10.71875 -4.390625 C 11.113281 -4.578125 11.394531 -4.863281 11.5625 -5.25 C 11.738281 -5.644531 11.851562 -5.96875 11.90625 -6.21875 C 11.957031 -6.476562 12.003906 -6.828125 12.046875 -7.265625 C 12.128906 -8.253906 12.941406 -8.75 14.484375 -8.75 C 15.390625 -8.75 16.03125 -8.585938 16.40625 -8.265625 C 16.78125 -7.941406 16.96875 -7.328125 16.96875 -6.421875 C 16.96875 -4.367188 16.222656 -2.753906 14.734375 -1.578125 C 13.253906 -0.398438 11.359375 0.1875 9.046875 0.1875 C 6.785156 0.1875 4.953125 -0.410156 3.546875 -1.609375 C 2.148438 -2.804688 1.453125 -4.691406 1.453125 -7.265625 Z M 1.453125 -7.265625 "/></g></g><g style="fill:rgb(12.548828%,43.919373%,0%);fill-opacity:1;"><g transform="translate(171.974541, 101.221509)"><path style="stroke:none;" d="M 1.453125 -7.265625 L 1.453125 -15.640625 C 1.453125 -18.210938 2.15625 -20.097656 3.5625 -21.296875 C 4.976562 -22.503906 6.859375 -23.109375 9.203125 -23.109375 C 11.554688 -23.109375 13.4375 -22.503906 14.84375 -21.296875 C 16.257812 -20.097656 16.96875 -18.210938 16.96875 -15.640625 L 16.96875 -7.265625 C 16.96875 -4.691406 16.257812 -2.804688 14.84375 -1.609375 C 13.4375 -0.410156 11.554688 0.1875 9.203125 0.1875 C 6.859375 0.1875 4.976562 -0.410156 3.5625 -1.609375 C 2.15625 -2.804688 1.453125 -4.691406 1.453125 -7.265625 Z M 6.390625 -7.265625 C 6.390625 -5.160156 7.328125 -4.109375 9.203125 -4.109375 C 11.097656 -4.109375 12.046875 -5.160156 12.046875 -7.265625 L 12.046875 -15.640625 C 12.046875 -17.753906 11.097656 -18.8125 9.203125 -18.8125 C 7.328125 -18.8125 6.390625 -17.753906 6.390625 -15.640625 Z M 6.390625 -7.265625 "/></g></g><g style="fill:rgb(12.548828%,43.919373%,0%);fill-opacity:1;"><g transform="translate(112.544365, 139.147824)"><path style="stroke:none;" d="M 0.25 -20.921875 C 0.25 -21.515625 0.375 -22.023438 0.625 -22.453125 C 0.882812 -22.890625 1.253906 -23.109375 1.734375 -23.109375 L 15.390625 -23.109375 C 15.878906 -23.109375 16.25 -22.890625 16.5 -22.453125 C 16.75 -22.023438 16.875 -21.515625 16.875 -20.921875 C 16.875 -20.296875 16.742188 -19.765625 16.484375 -19.328125 C 16.222656 -18.898438 15.859375 -18.6875 15.390625 -18.6875 L 11.03125 -18.6875 L 11.03125 -1.515625 C 11.03125 -1.035156 10.785156 -0.660156 10.296875 -0.390625 C 9.816406 -0.128906 9.238281 0 8.5625 0 C 7.882812 0 7.300781 -0.128906 6.8125 -0.390625 C 6.332031 -0.660156 6.09375 -1.035156 6.09375 -1.515625 L 6.09375 -18.6875 L 1.734375 -18.6875 C 1.273438 -18.6875 0.910156 -18.898438 0.640625 -19.328125 C 0.378906 -19.765625 0.25 -20.296875 0.25 -20.921875 Z M 0.25 -20.921875 "/></g></g><g style="fill:rgb(12.548828%,43.919373%,0%);fill-opacity:1;"><g transform="translate(129.674399, 139.147824)"><path style="stroke:none;" d="M 0.125 -2.015625 C 0.125 -2.085938 0.144531 -2.207031 0.1875 -2.375 L 6.0625 -21.65625 C 6.238281 -22.175781 6.625 -22.578125 7.21875 -22.859375 C 7.820312 -23.148438 8.515625 -23.296875 9.296875 -23.296875 C 10.078125 -23.296875 10.765625 -23.148438 11.359375 -22.859375 C 11.960938 -22.578125 12.347656 -22.175781 12.515625 -21.65625 L 18.421875 -2.375 C 18.460938 -2.207031 18.484375 -2.085938 18.484375 -2.015625 C 18.484375 -1.472656 18.140625 -1 17.453125 -0.59375 C 16.773438 -0.195312 16.066406 0 15.328125 0 C 14.421875 0 13.882812 -0.304688 13.71875 -0.921875 L 12.640625 -4.875 L 5.96875 -4.875 L 4.90625 -0.921875 C 4.726562 -0.304688 4.1875 0 3.28125 0 C 2.550781 0 1.84375 -0.195312 1.15625 -0.59375 C 0.46875 -1 0.125 -1.472656 0.125 -2.015625 Z M 6.984375 -8.65625 L 11.59375 -8.65625 L 9.296875 -17.125 Z M 6.984375 -8.65625 "/></g></g><g style="fill:rgb(12.548828%,43.919373%,0%);fill-opacity:1;"><g transform="translate(148.289885, 139.147824)"><path style="stroke:none;" d="M 1.703125 -1.515625 L 1.703125 -21.59375 C 1.703125 -22.070312 1.941406 -22.441406 2.421875 -22.703125 C 2.910156 -22.972656 3.492188 -23.109375 4.171875 -23.109375 C 5.117188 -23.109375 5.816406 -22.96875 6.265625 -22.6875 C 6.722656 -22.414062 7.238281 -21.734375 7.8125 -20.640625 L 12.921875 -10.875 L 12.921875 -21.625 C 12.921875 -22.101562 13.160156 -22.46875 13.640625 -22.71875 C 14.128906 -22.976562 14.710938 -23.109375 15.390625 -23.109375 C 16.066406 -23.109375 16.644531 -22.976562 17.125 -22.71875 C 17.613281 -22.46875 17.859375 -22.101562 17.859375 -21.625 L 17.859375 -1.515625 C 17.859375 -1.035156 17.613281 -0.660156 17.125 -0.390625 C 16.644531 -0.128906 16.066406 0 15.390625 0 C 14.046875 0 13.128906 -0.441406 12.640625 -1.328125 L 6.640625 -12.265625 L 6.640625 -1.515625 C 6.640625 -1.035156 6.394531 -0.660156 5.90625 -0.390625 C 5.425781 -0.128906 4.847656 0 4.171875 0 C 3.492188 0 2.910156 -0.128906 2.421875 -0.390625 C 1.941406 -0.660156 1.703125 -1.035156 1.703125 -1.515625 Z M 1.703125 -1.515625 "/></g></g><g style="fill:rgb(12.548828%,43.919373%,0%);fill-opacity:1;"><g transform="translate(167.853526, 139.147824)"><path style="stroke:none;" d="M 1.703125 -1.515625 L 1.703125 -21.625 C 1.703125 -22.101562 1.941406 -22.46875 2.421875 -22.71875 C 2.910156 -22.976562 3.492188 -23.109375 4.171875 -23.109375 C 4.847656 -23.109375 5.425781 -22.976562 5.90625 -22.71875 C 6.394531 -22.46875 6.640625 -22.101562 6.640625 -21.625 L 6.640625 -1.515625 C 6.640625 -1.035156 6.394531 -0.660156 5.90625 -0.390625 C 5.425781 -0.128906 4.847656 0 4.171875 0 C 3.492188 0 2.910156 -0.128906 2.421875 -0.390625 C 1.941406 -0.660156 1.703125 -1.035156 1.703125 -1.515625 Z M 1.703125 -1.515625 "/></g></g></g></svg>